<svg xmlns="http://www.w3.org/2000/svg" width="31" height="31" viewBox="0 0 31 31">
    <path fill="#FFF" fill-rule="nonzero" d="M29.417 25.227l-1.391-1.183-5.319-4.424-1.73-1.568-.023-.022a1.519 1.519 0 0 0-2.146.178l-.246.29-.365-.31c1.137-1.526 3.4-4.858 3.4-7.224 0-3.275-1.181-6.156-3.324-8.114A10.874 10.874 0 0 0 10.923 0C8.202 0 5.63 1.251 3.276 3.719 1.05 6.066 0 8.369 0 10.964c0 2.908 1.15 5.697 3.2 7.753a10.9 10.9 0 0 0 7.722 3.21c2.309 0 4.72-1.501 5.862-2.314l.487.414-.204.244a1.534 1.534 0 0 0 .178 2.152l3.157 2.684 3.251 2.85 2.064 1.668c.391.33.886.51 1.396.509h.185a2.178 2.178 0 0 0 1.487-.768l.82-1.19c.767-.947.696-2.21-.188-2.949zm-18.495-5.302a8.91 8.91 0 0 1-6.313-2.624 8.978 8.978 0 0 1-2.615-6.337c0-2.048.866-3.91 2.726-5.86 1.961-2.058 4.049-3.102 6.202-3.102 2.222 0 4.363.833 6.003 2.336 1.726 1.575 2.675 3.93 2.675 6.633 0 1.685-2.111 4.935-3.49 6.655-.458.356-3.017 2.3-5.188 2.3zm8.742 1.932l-.77-.655 1.116-1.325.69.624-1.036 1.356zm8.385 5.067l-.803 1.168a.196.196 0 0 1-.11.045.189.189 0 0 1-.137-.043l-2.046-1.657-3.251-2.846-.514-.437 1.024-1.335 4.532 3.769 1.383 1.167.01.01a.376.376 0 0 1-.086.159h-.002z"/>
</svg>
